<?xml version="1.0" encoding="UTF-8" standalone="no"?>
<!DOCTYPE svg PUBLIC "-//W3C//DTD SVG 1.1//EN"
 "http://www.w3.org/Graphics/SVG/1.1/DTD/svg11.dtd">
<!-- Generated by graphviz version 2.38.0 (20140413.2041)
 -->
<!-- Title: G Pages: 1 -->
<svg width="316pt" height="538pt"
 viewBox="0.00 0.00 316.00 538.00" xmlns="http://www.w3.org/2000/svg" xmlns:xlink="http://www.w3.org/1999/xlink">
<g id="graph0" class="graph" transform="scale(1 1) rotate(0) translate(4 534)">
<title>G</title>
<polygon fill="white" stroke="none" points="-4,4 -4,-534 312,-534 312,4 -4,4"/>
<g id="clust1" class="cluster"><title>cluster_Global</title>
<path fill="none" stroke="gray" d="M20,-8C20,-8 288,-8 288,-8 294,-8 300,-14 300,-20 300,-20 300,-510 300,-510 300,-516 294,-522 288,-522 288,-522 20,-522 20,-522 14,-522 8,-516 8,-510 8,-510 8,-20 8,-20 8,-14 14,-8 20,-8"/>
<text text-anchor="middle" x="154" y="-509.2" font-family="Times,serif" font-size="11.00" fill="gray">Global</text>
</g>
<g id="clust2" class="cluster"><title>cluster_\Dialog</title>
<path fill="none" stroke="gray" d="M28,-16C28,-16 280,-16 280,-16 286,-16 292,-22 292,-28 292,-28 292,-482 292,-482 292,-488 286,-494 280,-494 280,-494 28,-494 28,-494 22,-494 16,-488 16,-482 16,-482 16,-28 16,-28 16,-22 22,-16 28,-16"/>
<text text-anchor="middle" x="154" y="-481.2" font-family="Times,serif" font-size="11.00" fill="gray">Dialog</text>
</g>
<g id="clust3" class="cluster"><title>cluster_\Dialog\Widget</title>
<path fill="none" stroke="gray" d="M200.5,-232C200.5,-232 263.5,-232 263.5,-232 269.5,-232 275.5,-238 275.5,-244 275.5,-244 275.5,-454 275.5,-454 275.5,-460 269.5,-466 263.5,-466 263.5,-466 200.5,-466 200.5,-466 194.5,-466 188.5,-460 188.5,-454 188.5,-454 188.5,-244 188.5,-244 188.5,-238 194.5,-232 200.5,-232"/>
<text text-anchor="middle" x="232" y="-453.2" font-family="Times,serif" font-size="11.00" fill="gray">Widget</text>
</g>
<!-- \\Dialog\\Widget\\Yesno -->
<g id="node1" class="node"><title>\\Dialog\\Widget\\Yesno</title>
<polygon fill="none" stroke="black" points="259,-438 205,-438 205,-402 259,-402 259,-438"/>
<text text-anchor="middle" x="232" y="-417.2" font-family="Courier,monospace" font-size="11.00">Yesno</text>
</g>
<!-- \\Dialog\\Box -->
<g id="node5" class="node"><title>\\Dialog\\Box</title>
<polygon fill="none" stroke="black" points="108,-357 24,-357 24,-321 108,-321 108,-357"/>
<text text-anchor="start" x="32" y="-342.2" font-family="Courier,monospace" font-size="11.00">«abstract»</text>
<text text-anchor="start" x="55.5" y="-330.2" font-family="Courier,monospace" font-size="11.00">Box</text>
</g>
<!-- \\Dialog\\Widget\\Yesno&#45;&gt;\\Dialog\\Box -->
<g id="edge1" class="edge"><title>\\Dialog\\Widget\\Yesno&#45;&gt;\\Dialog\\Box</title>
<path fill="none" stroke="black" d="M204.651,-406.986C179.976,-394.799 142.574,-376.326 112.981,-361.71"/>
<polygon fill="none" stroke="black" points="114.19,-358.404 103.674,-357.113 111.09,-364.68 114.19,-358.404"/>
</g>
<!-- \\Dialog\\Widget\\Calendar -->
<g id="node2" class="node"><title>\\Dialog\\Widget\\Calendar</title>
<polygon fill="none" stroke="black" points="267.5,-384 196.5,-384 196.5,-348 267.5,-348 267.5,-384"/>
<text text-anchor="middle" x="232" y="-363.2" font-family="Courier,monospace" font-size="11.00">Calendar</text>
</g>
<!-- \\Dialog\\Widget\\Calendar&#45;&gt;\\Dialog\\Box -->
<g id="edge2" class="edge"><title>\\Dialog\\Widget\\Calendar&#45;&gt;\\Dialog\\Box</title>
<path fill="none" stroke="black" d="M196.22,-360.274C173.577,-356.546 143.647,-351.619 118.294,-347.445"/>
<polygon fill="none" stroke="black" points="118.542,-343.939 108.106,-345.768 117.405,-350.846 118.542,-343.939"/>
</g>
<!-- \\Dialog\\Widget\\Msgbox -->
<g id="node3" class="node"><title>\\Dialog\\Widget\\Msgbox</title>
<polygon fill="none" stroke="black" points="260.5,-330 203.5,-330 203.5,-294 260.5,-294 260.5,-330"/>
<text text-anchor="middle" x="232" y="-309.2" font-family="Courier,monospace" font-size="11.00">Msgbox</text>
</g>
<!-- \\Dialog\\Widget\\Msgbox&#45;&gt;\\Dialog\\Box -->
<g id="edge3" class="edge"><title>\\Dialog\\Widget\\Msgbox&#45;&gt;\\Dialog\\Box</title>
<path fill="none" stroke="black" d="M203.18,-316.58C179.983,-320.399 146.317,-325.942 118.262,-330.56"/>
<polygon fill="none" stroke="black" points="117.509,-327.137 108.21,-332.215 118.646,-334.044 117.509,-327.137"/>
</g>
<!-- \\Dialog\\Widget\\Infobox -->
<g id="node4" class="node"><title>\\Dialog\\Widget\\Infobox</title>
<polygon fill="none" stroke="black" points="264,-276 200,-276 200,-240 264,-240 264,-276"/>
<text text-anchor="middle" x="232" y="-255.2" font-family="Courier,monospace" font-size="11.00">Infobox</text>
</g>
<!-- \\Dialog\\Widget\\Infobox&#45;&gt;\\Dialog\\Box -->
<g id="edge4" class="edge"><title>\\Dialog\\Widget\\Infobox&#45;&gt;\\Dialog\\Box</title>
<path fill="none" stroke="black" d="M199.767,-273.426C175.135,-285.592 140.428,-302.734 112.677,-316.44"/>
<polygon fill="none" stroke="black" points="110.973,-313.378 103.557,-320.944 114.073,-319.654 110.973,-313.378"/>
</g>
<!-- \\Dialog\\Dialog -->
<g id="node6" class="node"><title>\\Dialog\\Dialog</title>
<polygon fill="none" stroke="black" points="260.5,-222 203.5,-222 203.5,-186 260.5,-186 260.5,-222"/>
<text text-anchor="middle" x="232" y="-201.2" font-family="Courier,monospace" font-size="11.00">Dialog</text>
</g>
<!-- \\Dialog\\DialogGroup -->
<g id="node7" class="node"><title>\\Dialog\\DialogGroup</title>
<polygon fill="none" stroke="black" points="277.5,-168 186.5,-168 186.5,-132 277.5,-132 277.5,-168"/>
<text text-anchor="middle" x="232" y="-147.2" font-family="Courier,monospace" font-size="11.00">DialogGroup</text>
</g>
<!-- \\Dialog\\Parser -->
<g id="node8" class="node"><title>\\Dialog\\Parser</title>
<polygon fill="none" stroke="black" points="260.5,-114 203.5,-114 203.5,-78 260.5,-78 260.5,-114"/>
<text text-anchor="middle" x="232" y="-93.2" font-family="Courier,monospace" font-size="11.00">Parser</text>
</g>
<!-- \\Dialog\\CommonOptions -->
<g id="node9" class="node"><title>\\Dialog\\CommonOptions</title>
<polygon fill="none" stroke="black" points="284,-60 180,-60 180,-24 284,-24 284,-60"/>
<text text-anchor="middle" x="232" y="-39.2" font-family="Courier,monospace" font-size="11.00">CommonOptions</text>
</g>
</g>
</svg>
