<?xml version="1.0" encoding="UTF-8" standalone="no"?>
<!DOCTYPE svg PUBLIC "-//W3C//DTD SVG 1.1//EN"
 "http://www.w3.org/Graphics/SVG/1.1/DTD/svg11.dtd">
<!-- Generated by graphviz version 2.38.0 (20140413.2041)
 -->
<!-- Title: G Pages: 1 -->
<svg width="657pt" height="1806pt"
 viewBox="0.00 0.00 657.19 1806.00" xmlns="http://www.w3.org/2000/svg" xmlns:xlink="http://www.w3.org/1999/xlink">
<g id="graph0" class="graph" transform="scale(1 1) rotate(0) translate(4 1802)">
<title>G</title>
<polygon fill="white" stroke="none" points="-4,4 -4,-1802 653.188,-1802 653.188,4 -4,4"/>
<g id="clust1" class="cluster"><title>cluster_Global</title>
<path fill="none" stroke="gray" d="M195.188,-8C195.188,-8 629.188,-8 629.188,-8 635.188,-8 641.188,-14 641.188,-20 641.188,-20 641.188,-1778 641.188,-1778 641.188,-1784 635.188,-1790 629.188,-1790 629.188,-1790 195.188,-1790 195.188,-1790 189.188,-1790 183.188,-1784 183.188,-1778 183.188,-1778 183.188,-20 183.188,-20 183.188,-14 189.188,-8 195.188,-8"/>
<text text-anchor="middle" x="412.188" y="-1777.2" font-family="Times,serif" font-size="11.00" fill="gray">Global</text>
</g>
<g id="clust2" class="cluster"><title>cluster_\Dialog</title>
<path fill="none" stroke="gray" d="M203.188,-16C203.188,-16 621.188,-16 621.188,-16 627.188,-16 633.188,-22 633.188,-28 633.188,-28 633.188,-1750 633.188,-1750 633.188,-1756 627.188,-1762 621.188,-1762 621.188,-1762 203.188,-1762 203.188,-1762 197.188,-1762 191.188,-1756 191.188,-1750 191.188,-1750 191.188,-28 191.188,-28 191.188,-22 197.188,-16 203.188,-16"/>
<text text-anchor="middle" x="412.188" y="-1749.2" font-family="Times,serif" font-size="11.00" fill="gray">Dialog</text>
</g>
<g id="clust3" class="cluster"><title>cluster_\Dialog\Widgets</title>
<path fill="none" stroke="gray" d="M214.688,-70C214.688,-70 613.188,-70 613.188,-70 619.188,-70 625.188,-76 625.188,-82 625.188,-82 625.188,-1318 625.188,-1318 625.188,-1324 619.188,-1330 613.188,-1330 613.188,-1330 214.688,-1330 214.688,-1330 208.688,-1330 202.688,-1324 202.688,-1318 202.688,-1318 202.688,-82 202.688,-82 202.688,-76 208.688,-70 214.688,-70"/>
<text text-anchor="middle" x="413.938" y="-1317.2" font-family="Times,serif" font-size="11.00" fill="gray">Widgets</text>
</g>
<g id="clust4" class="cluster"><title>cluster_\Dialog\Options</title>
<path fill="none" stroke="gray" d="M211.188,-1338C211.188,-1338 287.188,-1338 287.188,-1338 293.188,-1338 299.188,-1344 299.188,-1350 299.188,-1350 299.188,-1722 299.188,-1722 299.188,-1728 293.188,-1734 287.188,-1734 287.188,-1734 211.188,-1734 211.188,-1734 205.188,-1734 199.188,-1728 199.188,-1722 199.188,-1722 199.188,-1350 199.188,-1350 199.188,-1344 205.188,-1338 211.188,-1338"/>
<text text-anchor="middle" x="249.188" y="-1721.2" font-family="Times,serif" font-size="11.00" fill="gray">Options</text>
</g>
<!-- \\Dialog\\Widgets\\Dselect -->
<g id="node1" class="node"><title>\\Dialog\\Widgets\\Dselect</title>
<polygon fill="none" stroke="black" points="600.188,-330 536.188,-330 536.188,-294 600.188,-294 600.188,-330"/>
<text text-anchor="middle" x="568.188" y="-309.2" font-family="Courier,monospace" font-size="11.00">Dselect</text>
</g>
<!-- \\Dialog\\Options\\Box -->
<g id="node29" class="node"><title>\\Dialog\\Options\\Box</title>
<polygon fill="none" stroke="black" points="276.188,-1706 222.188,-1706 222.188,-1670 276.188,-1670 276.188,-1706"/>
<text text-anchor="middle" x="249.188" y="-1685.2" font-family="Courier,monospace" font-size="11.00">Box</text>
</g>
<!-- \\Dialog\\Widgets\\Dselect&#45;&gt;\\Dialog\\Options\\Box -->
<g id="edge1" class="edge"><title>\\Dialog\\Widgets\\Dselect&#45;&gt;\\Dialog\\Options\\Box</title>
<path fill="none" stroke="black" d="M535.723,-324.57C529.444,-328.367 523.473,-333.131 519.188,-339 388.423,-518.105 564.144,-669.346 406.188,-825"/>
<path fill="none" stroke="black" d="M404.188,-825C137.458,-1087.84 509.412,-1351.1 299.188,-1661 295.574,-1666.33 290.547,-1670.71 285.08,-1674.27"/>
<polygon fill="none" stroke="black" points="283.273,-1671.27 276.268,-1679.22 286.701,-1677.37 283.273,-1671.27"/>
</g>
<!-- \\Dialog\\Widgets\\Programbox -->
<g id="node2" class="node"><title>\\Dialog\\Widgets\\Programbox</title>
<polygon fill="none" stroke="black" points="447.188,-680 363.188,-680 363.188,-644 447.188,-644 447.188,-680"/>
<text text-anchor="middle" x="405.188" y="-659.2" font-family="Courier,monospace" font-size="11.00">Programbox</text>
</g>
<!-- \\Dialog\\Widgets\\Programbox&#45;&gt;\\Dialog\\Options\\Box -->
<g id="edge2" class="edge"><title>\\Dialog\\Widgets\\Programbox&#45;&gt;\\Dialog\\Options\\Box</title>
<path fill="none" stroke="black" d="M398.314,-680.258C389.184,-709.444 371.749,-768.564 363.188,-820 332.416,-1004.89 400.577,-1503.36 299.188,-1661 295.671,-1666.47 290.643,-1670.92 285.135,-1674.52"/>
<polygon fill="none" stroke="black" points="283.258,-1671.56 276.232,-1679.49 286.67,-1677.67 283.258,-1671.56"/>
</g>
<!-- \\Dialog\\Widgets\\Passwordform -->
<g id="node3" class="node"><title>\\Dialog\\Widgets\\Passwordform</title>
<polygon fill="none" stroke="black" points="617.188,-222 519.188,-222 519.188,-186 617.188,-186 617.188,-222"/>
<text text-anchor="middle" x="568.188" y="-201.2" font-family="Courier,monospace" font-size="11.00">Passwordform</text>
</g>
<!-- \\Dialog\\Widgets\\Form -->
<g id="node16" class="node"><title>\\Dialog\\Widgets\\Form</title>
<polygon fill="none" stroke="black" points="432.188,-375 378.188,-375 378.188,-339 432.188,-339 432.188,-375"/>
<text text-anchor="middle" x="405.188" y="-354.2" font-family="Courier,monospace" font-size="11.00">Form</text>
</g>
<!-- \\Dialog\\Widgets\\Passwordform&#45;&gt;\\Dialog\\Widgets\\Form -->
<g id="edge3" class="edge"><title>\\Dialog\\Widgets\\Passwordform&#45;&gt;\\Dialog\\Widgets\\Form</title>
<path fill="none" stroke="black" d="M531.965,-222.026C527.514,-224.814 523.141,-227.829 519.188,-231 482.167,-260.697 446.879,-303.078 425.874,-330.316"/>
<polygon fill="none" stroke="black" points="422.846,-328.516 419.572,-338.592 428.415,-332.757 422.846,-328.516"/>
</g>
<!-- \\Dialog\\Widgets\\Tailbox -->
<g id="node4" class="node"><title>\\Dialog\\Widgets\\Tailbox</title>
<polygon fill="none" stroke="black" points="600.188,-384 536.188,-384 536.188,-348 600.188,-348 600.188,-384"/>
<text text-anchor="middle" x="568.188" y="-363.2" font-family="Courier,monospace" font-size="11.00">Tailbox</text>
</g>
<!-- \\Dialog\\Widgets\\Tailbox&#45;&gt;\\Dialog\\Options\\Box -->
<g id="edge4" class="edge"><title>\\Dialog\\Widgets\\Tailbox&#45;&gt;\\Dialog\\Options\\Box</title>
<path fill="none" stroke="black" d="M535.877,-378.685C529.59,-382.476 523.577,-387.209 519.188,-393 399.319,-551.17 547.546,-685.702 406.188,-825"/>
</g>
<!-- \\Dialog\\Widgets\\Msgbox -->
<g id="node5" class="node"><title>\\Dialog\\Widgets\\Msgbox</title>
<polygon fill="none" stroke="black" points="596.688,-438 539.688,-438 539.688,-402 596.688,-402 596.688,-438"/>
<text text-anchor="middle" x="568.188" y="-417.2" font-family="Courier,monospace" font-size="11.00">Msgbox</text>
</g>
<!-- \\Dialog\\Widgets\\Msgbox&#45;&gt;\\Dialog\\Options\\Box -->
<g id="edge5" class="edge"><title>\\Dialog\\Widgets\\Msgbox&#45;&gt;\\Dialog\\Options\\Box</title>
<path fill="none" stroke="black" d="M539.587,-430.853C532.084,-434.942 524.557,-440.275 519.188,-447 409.78,-584.026 531.083,-701.925 406.188,-825"/>
</g>
<!-- \\Dialog\\Widgets\\Calendar -->
<g id="node6" class="node"><title>\\Dialog\\Widgets\\Calendar</title>
<polygon fill="none" stroke="black" points="603.688,-492 532.688,-492 532.688,-456 603.688,-456 603.688,-492"/>
<text text-anchor="middle" x="568.188" y="-471.2" font-family="Courier,monospace" font-size="11.00">Calendar</text>
</g>
<!-- \\Dialog\\Widgets\\Calendar&#45;&gt;\\Dialog\\Options\\Box -->
<g id="edge6" class="edge"><title>\\Dialog\\Widgets\\Calendar&#45;&gt;\\Dialog\\Options\\Box</title>
<path fill="none" stroke="black" d="M532.338,-489.51C527.464,-492.781 522.87,-496.601 519.188,-501 421.292,-617.939 514.815,-717.956 406.188,-825"/>
</g>
<!-- \\Dialog\\Widgets\\Passwordbox -->
<g id="node7" class="node"><title>\\Dialog\\Widgets\\Passwordbox</title>
<polygon fill="none" stroke="black" points="613.688,-168 522.688,-168 522.688,-132 613.688,-132 613.688,-168"/>
<text text-anchor="middle" x="568.188" y="-147.2" font-family="Courier,monospace" font-size="11.00">Passwordbox</text>
</g>
<!-- \\Dialog\\Widgets\\Inputbox -->
<g id="node13" class="node"><title>\\Dialog\\Widgets\\Inputbox</title>
<polygon fill="none" stroke="black" points="440.688,-244 369.688,-244 369.688,-208 440.688,-208 440.688,-244"/>
<text text-anchor="middle" x="405.188" y="-223.2" font-family="Courier,monospace" font-size="11.00">Inputbox</text>
</g>
<!-- \\Dialog\\Widgets\\Passwordbox&#45;&gt;\\Dialog\\Widgets\\Inputbox -->
<g id="edge7" class="edge"><title>\\Dialog\\Widgets\\Passwordbox&#45;&gt;\\Dialog\\Widgets\\Inputbox</title>
<path fill="none" stroke="black" d="M529.033,-168.011C505.286,-179.221 474.667,-193.675 449.938,-205.348"/>
<polygon fill="none" stroke="black" points="448.325,-202.239 440.776,-209.673 451.313,-208.569 448.325,-202.239"/>
</g>
<!-- \\Dialog\\Widgets\\Editbox -->
<g id="node8" class="node"><title>\\Dialog\\Widgets\\Editbox</title>
<polygon fill="none" stroke="black" points="600.188,-546 536.188,-546 536.188,-510 600.188,-510 600.188,-546"/>
<text text-anchor="middle" x="568.188" y="-525.2" font-family="Courier,monospace" font-size="11.00">Editbox</text>
</g>
<!-- \\Dialog\\Widgets\\Editbox&#45;&gt;\\Dialog\\Options\\Box -->
<g id="edge8" class="edge"><title>\\Dialog\\Widgets\\Editbox&#45;&gt;\\Dialog\\Options\\Box</title>
<path fill="none" stroke="black" d="M536.035,-541.523C529.888,-545.23 523.893,-549.715 519.188,-555 432.691,-652.163 498.845,-733.693 406.188,-825"/>
</g>
<!-- \\Dialog\\Widgets\\Gauge -->
<g id="node9" class="node"><title>\\Dialog\\Widgets\\Gauge</title>
<polygon fill="none" stroke="black" points="595.188,-600 541.188,-600 541.188,-564 595.188,-564 595.188,-600"/>
<text text-anchor="middle" x="568.188" y="-579.2" font-family="Courier,monospace" font-size="11.00">Gauge</text>
</g>
<!-- \\Dialog\\Widgets\\Gauge&#45;&gt;\\Dialog\\Options\\Box -->
<g id="edge9" class="edge"><title>\\Dialog\\Widgets\\Gauge&#45;&gt;\\Dialog\\Options\\Box</title>
<path fill="none" stroke="black" d="M540.871,-593.272C533.234,-597.423 525.313,-602.686 519.188,-609 443.751,-686.766 483.359,-748.954 406.188,-825"/>
</g>
<!-- \\Dialog\\Widgets\\Fselect -->
<g id="node10" class="node"><title>\\Dialog\\Widgets\\Fselect</title>
<polygon fill="none" stroke="black" points="600.188,-654 536.188,-654 536.188,-618 600.188,-618 600.188,-654"/>
<text text-anchor="middle" x="568.188" y="-633.2" font-family="Courier,monospace" font-size="11.00">Fselect</text>
</g>
<!-- \\Dialog\\Widgets\\Fselect&#45;&gt;\\Dialog\\Options\\Box -->
<g id="edge10" class="edge"><title>\\Dialog\\Widgets\\Fselect&#45;&gt;\\Dialog\\Options\\Box</title>
<path fill="none" stroke="black" d="M536.091,-650.773C530.145,-654.329 524.215,-658.437 519.188,-663 454.187,-722.002 468.716,-763.384 406.188,-825"/>
</g>
<!-- \\Dialog\\Widgets\\Mixedform -->
<g id="node11" class="node"><title>\\Dialog\\Widgets\\Mixedform</title>
<polygon fill="none" stroke="black" points="606.688,-708 529.688,-708 529.688,-672 606.688,-672 606.688,-708"/>
<text text-anchor="middle" x="568.188" y="-687.2" font-family="Courier,monospace" font-size="11.00">Mixedform</text>
</g>
<!-- \\Dialog\\Widgets\\Mixedform&#45;&gt;\\Dialog\\Options\\Box -->
<g id="edge11" class="edge"><title>\\Dialog\\Widgets\\Mixedform&#45;&gt;\\Dialog\\Options\\Box</title>
<path fill="none" stroke="black" d="M532.697,-708.008C528.039,-710.838 523.414,-713.87 519.188,-717 463.365,-758.353 455.671,-776.238 406.188,-825"/>
</g>
<!-- \\Dialog\\Widgets\\Inputmenu -->
<g id="node12" class="node"><title>\\Dialog\\Widgets\\Inputmenu</title>
<polygon fill="none" stroke="black" points="606.688,-762 529.688,-762 529.688,-726 606.688,-726 606.688,-762"/>
<text text-anchor="middle" x="568.188" y="-741.2" font-family="Courier,monospace" font-size="11.00">Inputmenu</text>
</g>
<!-- \\Dialog\\Widgets\\Inputmenu&#45;&gt;\\Dialog\\Options\\Box -->
<g id="edge12" class="edge"><title>\\Dialog\\Widgets\\Inputmenu&#45;&gt;\\Dialog\\Options\\Box</title>
<path fill="none" stroke="black" d="M529.614,-755.384C494.141,-767.722 441.29,-790.41 406.188,-825"/>
</g>
<!-- \\Dialog\\Widgets\\Inputbox&#45;&gt;\\Dialog\\Options\\Box -->
<g id="edge13" class="edge"><title>\\Dialog\\Widgets\\Inputbox&#45;&gt;\\Dialog\\Options\\Box</title>
<path fill="none" stroke="black" d="M394.881,-244.213C385.006,-264.538 369.919,-298.692 363.188,-330 332.065,-474.752 377.535,-1535.37 299.188,-1661 295.748,-1666.52 290.756,-1670.99 285.26,-1674.6"/>
<polygon fill="none" stroke="black" points="283.384,-1671.64 276.359,-1679.57 286.796,-1677.75 283.384,-1671.64"/>
</g>
<!-- \\Dialog\\Widgets\\Treeview -->
<g id="node14" class="node"><title>\\Dialog\\Widgets\\Treeview</title>
<polygon fill="none" stroke="black" points="603.688,-816 532.688,-816 532.688,-780 603.688,-780 603.688,-816"/>
<text text-anchor="middle" x="568.188" y="-795.2" font-family="Courier,monospace" font-size="11.00">Treeview</text>
</g>
<!-- \\Dialog\\Widgets\\Treeview&#45;&gt;\\Dialog\\Options\\Box -->
<g id="edge14" class="edge"><title>\\Dialog\\Widgets\\Treeview&#45;&gt;\\Dialog\\Options\\Box</title>
<path fill="none" stroke="black" d="M532.581,-793.314C496.058,-790.47 439.295,-792.376 406.188,-825"/>
</g>
<!-- \\Dialog\\Widgets\\Radiolist -->
<g id="node15" class="node"><title>\\Dialog\\Widgets\\Radiolist</title>
<polygon fill="none" stroke="black" points="606.688,-114 529.688,-114 529.688,-78 606.688,-78 606.688,-114"/>
<text text-anchor="middle" x="568.188" y="-93.2" font-family="Courier,monospace" font-size="11.00">Radiolist</text>
</g>
<!-- \\Dialog\\Widgets\\Checklist -->
<g id="node22" class="node"><title>\\Dialog\\Widgets\\Checklist</title>
<polygon fill="none" stroke="black" points="443.688,-152 366.688,-152 366.688,-116 443.688,-116 443.688,-152"/>
<text text-anchor="middle" x="405.188" y="-131.2" font-family="Courier,monospace" font-size="11.00">Checklist</text>
</g>
<!-- \\Dialog\\Widgets\\Radiolist&#45;&gt;\\Dialog\\Widgets\\Checklist -->
<g id="edge15" class="edge"><title>\\Dialog\\Widgets\\Radiolist&#45;&gt;\\Dialog\\Widgets\\Checklist</title>
<path fill="none" stroke="black" d="M529.441,-104.909C506.832,-110.245 477.886,-117.077 453.727,-122.78"/>
<polygon fill="none" stroke="black" points="452.627,-119.443 443.699,-125.147 454.235,-126.256 452.627,-119.443"/>
</g>
<!-- \\Dialog\\Widgets\\Form&#45;&gt;\\Dialog\\Options\\Box -->
<g id="edge16" class="edge"><title>\\Dialog\\Widgets\\Form&#45;&gt;\\Dialog\\Options\\Box</title>
<path fill="none" stroke="black" d="M400.97,-375.148C393.241,-419.41 373.505,-536.503 363.188,-635 351.289,-748.6 360.318,-1564.51 299.188,-1661 295.708,-1666.49 290.698,-1670.96 285.196,-1674.56"/>
<polygon fill="none" stroke="black" points="283.319,-1671.6 276.294,-1679.53 286.732,-1677.71 283.319,-1671.6"/>
</g>
<!-- \\Dialog\\Widgets\\Buildlist -->
<g id="node17" class="node"><title>\\Dialog\\Widgets\\Buildlist</title>
<polygon fill="none" stroke="black" points="287.688,-746 210.688,-746 210.688,-710 287.688,-710 287.688,-746"/>
<text text-anchor="middle" x="249.188" y="-725.2" font-family="Courier,monospace" font-size="11.00">Buildlist</text>
</g>
<!-- \\Dialog\\Widgets\\Buildlist&#45;&gt;\\Dialog\\Options\\Box -->
<g id="edge17" class="edge"><title>\\Dialog\\Widgets\\Buildlist&#45;&gt;\\Dialog\\Options\\Box</title>
<path fill="none" stroke="black" d="M252.483,-746.024C265.766,-819.719 315.422,-1105.47 331.188,-1343 335.736,-1411.52 368.736,-1594.51 331.188,-1652 321.191,-1667.31 303.076,-1676.15 286.41,-1681.23"/>
<polygon fill="none" stroke="black" points="285.061,-1677.97 276.306,-1683.94 286.871,-1684.73 285.061,-1677.97"/>
</g>
<!-- \\Dialog\\Widgets\\Progressbox -->
<g id="node18" class="node"><title>\\Dialog\\Widgets\\Progressbox</title>
<polygon fill="none" stroke="black" points="613.688,-276 522.688,-276 522.688,-240 613.688,-240 613.688,-276"/>
<text text-anchor="middle" x="568.188" y="-255.2" font-family="Courier,monospace" font-size="11.00">Progressbox</text>
</g>
<!-- \\Dialog\\Widgets\\Progressbox&#45;&gt;\\Dialog\\Widgets\\Programbox -->
<g id="edge18" class="edge"><title>\\Dialog\\Widgets\\Progressbox&#45;&gt;\\Dialog\\Widgets\\Programbox</title>
<path fill="none" stroke="black" d="M528.362,-276.123C524.959,-278.762 521.816,-281.715 519.188,-285 432.855,-392.901 412.405,-565.606 407.623,-633.382"/>
<polygon fill="none" stroke="black" points="404.109,-633.493 406.961,-643.697 411.095,-633.941 404.109,-633.493"/>
</g>
<!-- \\Dialog\\Widgets\\Timebox -->
<g id="node19" class="node"><title>\\Dialog\\Widgets\\Timebox</title>
<polygon fill="none" stroke="black" points="600.188,-870 536.188,-870 536.188,-834 600.188,-834 600.188,-870"/>
<text text-anchor="middle" x="568.188" y="-849.2" font-family="Courier,monospace" font-size="11.00">Timebox</text>
</g>
<!-- \\Dialog\\Widgets\\Timebox&#45;&gt;\\Dialog\\Options\\Box -->
<g id="edge19" class="edge"><title>\\Dialog\\Widgets\\Timebox&#45;&gt;\\Dialog\\Options\\Box</title>
<path fill="none" stroke="black" d="M536.11,-840.96C494.576,-827.153 424.104,-807.345 406.188,-825"/>
</g>
<!-- \\Dialog\\Widgets\\Yesno -->
<g id="node20" class="node"><title>\\Dialog\\Widgets\\Yesno</title>
<polygon fill="none" stroke="black" points="595.188,-924 541.188,-924 541.188,-888 595.188,-888 595.188,-924"/>
<text text-anchor="middle" x="568.188" y="-903.2" font-family="Courier,monospace" font-size="11.00">Yesno</text>
</g>
<!-- \\Dialog\\Widgets\\Yesno&#45;&gt;\\Dialog\\Options\\Box -->
<g id="edge20" class="edge"><title>\\Dialog\\Widgets\\Yesno&#45;&gt;\\Dialog\\Options\\Box</title>
<path fill="none" stroke="black" d="M540.959,-891.193C496.699,-866.434 411.453,-819.811 406.188,-825"/>
</g>
<!-- \\Dialog\\Widgets\\Prgbox -->
<g id="node21" class="node"><title>\\Dialog\\Widgets\\Prgbox</title>
<polygon fill="none" stroke="black" points="596.688,-978 539.688,-978 539.688,-942 596.688,-942 596.688,-978"/>
<text text-anchor="middle" x="568.188" y="-957.2" font-family="Courier,monospace" font-size="11.00">Prgbox</text>
</g>
<!-- \\Dialog\\Widgets\\Prgbox&#45;&gt;\\Dialog\\Options\\Box -->
<g id="edge21" class="edge"><title>\\Dialog\\Widgets\\Prgbox&#45;&gt;\\Dialog\\Options\\Box</title>
<path fill="none" stroke="black" d="M539.539,-946.004C532.677,-942.114 525.488,-937.667 519.188,-933 463.365,-891.647 455.671,-776.238 406.188,-825"/>
</g>
<!-- \\Dialog\\Widgets\\Checklist&#45;&gt;\\Dialog\\Widgets\\Buildlist -->
<g id="edge22" class="edge"><title>\\Dialog\\Widgets\\Checklist&#45;&gt;\\Dialog\\Widgets\\Buildlist</title>
<path fill="none" stroke="black" d="M390.314,-152.103C381.337,-164.645 370.08,-182.07 363.188,-199 289.128,-380.932 260.654,-618.709 252.714,-699.626"/>
<polygon fill="none" stroke="black" points="249.192,-699.694 251.728,-709.981 256.161,-700.358 249.192,-699.694"/>
</g>
<!-- \\Dialog\\Widgets\\Menu -->
<g id="node23" class="node"><title>\\Dialog\\Widgets\\Menu</title>
<polygon fill="none" stroke="black" points="595.188,-1032 541.188,-1032 541.188,-996 595.188,-996 595.188,-1032"/>
<text text-anchor="middle" x="568.188" y="-1011.2" font-family="Courier,monospace" font-size="11.00">Menu</text>
</g>
<!-- \\Dialog\\Widgets\\Menu&#45;&gt;\\Dialog\\Options\\Box -->
<g id="edge23" class="edge"><title>\\Dialog\\Widgets\\Menu&#45;&gt;\\Dialog\\Options\\Box</title>
<path fill="none" stroke="black" d="M540.852,-1001.96C533.384,-997.838 525.56,-992.784 519.188,-987 454.187,-927.998 468.716,-763.384 406.188,-825"/>
</g>
<!-- \\Dialog\\Widgets\\Textbox -->
<g id="node24" class="node"><title>\\Dialog\\Widgets\\Textbox</title>
<polygon fill="none" stroke="black" points="600.188,-1086 536.188,-1086 536.188,-1050 600.188,-1050 600.188,-1086"/>
<text text-anchor="middle" x="568.188" y="-1065.2" font-family="Courier,monospace" font-size="11.00">Textbox</text>
</g>
<!-- \\Dialog\\Widgets\\Textbox&#45;&gt;\\Dialog\\Options\\Box -->
<g id="edge24" class="edge"><title>\\Dialog\\Widgets\\Textbox&#45;&gt;\\Dialog\\Options\\Box</title>
<path fill="none" stroke="black" d="M536.121,-1054.01C530.039,-1050.36 524.048,-1046.01 519.188,-1041 443.751,-963.234 483.359,-748.954 406.188,-825"/>
</g>
<!-- \\Dialog\\Widgets\\Rangebox -->
<g id="node25" class="node"><title>\\Dialog\\Widgets\\Rangebox</title>
<polygon fill="none" stroke="black" points="603.688,-1140 532.688,-1140 532.688,-1104 603.688,-1104 603.688,-1140"/>
<text text-anchor="middle" x="568.188" y="-1119.2" font-family="Courier,monospace" font-size="11.00">Rangebox</text>
</g>
<!-- \\Dialog\\Widgets\\Rangebox&#45;&gt;\\Dialog\\Options\\Box -->
<g id="edge25" class="edge"><title>\\Dialog\\Widgets\\Rangebox&#45;&gt;\\Dialog\\Options\\Box</title>
<path fill="none" stroke="black" d="M532.57,-1106.29C527.666,-1103.04 523.002,-1099.28 519.188,-1095 432.691,-997.837 498.845,-733.693 406.188,-825"/>
</g>
<!-- \\Dialog\\Widgets\\Mixedgauge -->
<g id="node26" class="node"><title>\\Dialog\\Widgets\\Mixedgauge</title>
<polygon fill="none" stroke="black" points="610.188,-1194 526.188,-1194 526.188,-1158 610.188,-1158 610.188,-1194"/>
<text text-anchor="middle" x="568.188" y="-1173.2" font-family="Courier,monospace" font-size="11.00">Mixedgauge</text>
</g>
<!-- \\Dialog\\Widgets\\Mixedgauge&#45;&gt;\\Dialog\\Options\\Box -->
<g id="edge26" class="edge"><title>\\Dialog\\Widgets\\Mixedgauge&#45;&gt;\\Dialog\\Options\\Box</title>
<path fill="none" stroke="black" d="M528.51,-1157.76C525.079,-1155.14 521.888,-1152.23 519.188,-1149 421.292,-1032.06 514.815,-717.956 406.188,-825"/>
</g>
<!-- \\Dialog\\Widgets\\Infobox -->
<g id="node27" class="node"><title>\\Dialog\\Widgets\\Infobox</title>
<polygon fill="none" stroke="black" points="600.188,-1248 536.188,-1248 536.188,-1212 600.188,-1212 600.188,-1248"/>
<text text-anchor="middle" x="568.188" y="-1227.2" font-family="Courier,monospace" font-size="11.00">Infobox</text>
</g>
<!-- \\Dialog\\Widgets\\Infobox&#45;&gt;\\Dialog\\Options\\Box -->
<g id="edge27" class="edge"><title>\\Dialog\\Widgets\\Infobox&#45;&gt;\\Dialog\\Options\\Box</title>
<path fill="none" stroke="black" d="M536.098,-1217.14C529.8,-1213.36 523.726,-1208.68 519.188,-1203 409.69,-1066.05 531.083,-701.925 406.188,-825"/>
</g>
<!-- \\Dialog\\Widgets\\Pause -->
<g id="node28" class="node"><title>\\Dialog\\Widgets\\Pause</title>
<polygon fill="none" stroke="black" points="595.188,-1302 541.188,-1302 541.188,-1266 595.188,-1266 595.188,-1302"/>
<text text-anchor="middle" x="568.188" y="-1281.2" font-family="Courier,monospace" font-size="11.00">Pause</text>
</g>
<!-- \\Dialog\\Widgets\\Pause&#45;&gt;\\Dialog\\Options\\Box -->
<g id="edge28" class="edge"><title>\\Dialog\\Widgets\\Pause&#45;&gt;\\Dialog\\Options\\Box</title>
<path fill="none" stroke="black" d="M540.946,-1274.06C532.946,-1269.88 524.795,-1264.27 519.188,-1257 397.96,-1099.87 547.546,-685.702 406.188,-825"/>
</g>
<!-- \\Dialog\\Options -->
<g id="node37" class="node"><title>\\Dialog\\Options</title>
<ellipse fill="none" stroke="black" cx="67.594" cy="-1688" rx="67.6881" ry="18"/>
<text text-anchor="middle" x="67.594" y="-1684.3" font-family="Times,serif" font-size="14.00" fill="gray">\Dialog\Options</text>
</g>
<!-- \\Dialog\\Options\\Box&#45;&gt;\\Dialog\\Options -->
<g id="edge29" class="edge"><title>\\Dialog\\Options\\Box&#45;&gt;\\Dialog\\Options</title>
<path fill="none" stroke="black" d="M222.073,-1688C201.974,-1688 173.104,-1688 145.815,-1688"/>
<polygon fill="none" stroke="black" points="145.455,-1684.5 135.455,-1688 145.455,-1691.5 145.455,-1684.5"/>
</g>
<!-- \\Dialog\\Options\\MenuItem -->
<g id="node30" class="node"><title>\\Dialog\\Options\\MenuItem</title>
<polygon fill="none" stroke="black" points="284.688,-1652 213.688,-1652 213.688,-1616 284.688,-1616 284.688,-1652"/>
<text text-anchor="middle" x="249.188" y="-1631.2" font-family="Courier,monospace" font-size="11.00">MenuItem</text>
</g>
<!-- \\Dialog\\Options\\MixedField -->
<g id="node31" class="node"><title>\\Dialog\\Options\\MixedField</title>
<polygon fill="none" stroke="black" points="291.188,-1598 207.188,-1598 207.188,-1562 291.188,-1562 291.188,-1598"/>
<text text-anchor="middle" x="249.188" y="-1577.2" font-family="Courier,monospace" font-size="11.00">MixedField</text>
</g>
<!-- \\Dialog\\Options\\StepItem -->
<g id="node32" class="node"><title>\\Dialog\\Options\\StepItem</title>
<polygon fill="none" stroke="black" points="284.688,-1544 213.688,-1544 213.688,-1508 284.688,-1508 284.688,-1544"/>
<text text-anchor="middle" x="249.188" y="-1523.2" font-family="Courier,monospace" font-size="11.00">StepItem</text>
</g>
<!-- \\Dialog\\Options\\TreeNode -->
<g id="node33" class="node"><title>\\Dialog\\Options\\TreeNode</title>
<polygon fill="none" stroke="black" points="284.688,-1490 213.688,-1490 213.688,-1454 284.688,-1454 284.688,-1490"/>
<text text-anchor="middle" x="249.188" y="-1469.2" font-family="Courier,monospace" font-size="11.00">TreeNode</text>
</g>
<!-- \\Dialog\\Options\\Item -->
<g id="node34" class="node"><title>\\Dialog\\Options\\Item</title>
<polygon fill="none" stroke="black" points="276.188,-1436 222.188,-1436 222.188,-1400 276.188,-1400 276.188,-1436"/>
<text text-anchor="middle" x="249.188" y="-1415.2" font-family="Courier,monospace" font-size="11.00">Item</text>
</g>
<!-- \\Dialog\\Options\\Field -->
<g id="node35" class="node"><title>\\Dialog\\Options\\Field</title>
<polygon fill="none" stroke="black" points="276.188,-1382 222.188,-1382 222.188,-1346 276.188,-1346 276.188,-1382"/>
<text text-anchor="middle" x="249.188" y="-1361.2" font-family="Courier,monospace" font-size="11.00">Field</text>
</g>
<!-- \\Dialog\\Dialog -->
<g id="node36" class="node"><title>\\Dialog\\Dialog</title>
<polygon fill="none" stroke="black" points="596.688,-60 539.688,-60 539.688,-24 596.688,-24 596.688,-60"/>
<text text-anchor="middle" x="568.188" y="-39.2" font-family="Courier,monospace" font-size="11.00">Dialog</text>
</g>
</g>
</svg>
